<svg width="32" height="32" viewBox="0 0 32 32" fill="none" xmlns="http://www.w3.org/2000/svg">
<rect width="32" height="32" rx="16" fill="#153114"/>
<path d="M15.9449 6C15.3236 6.64119 14.7236 7.27049 14.2768 7.88279C13.762 8.58347 13.4556 9.25271 13.4556 9.84334C13.4556 10.8759 13.5449 11.8999 13.762 12.72C14.4896 13.2299 15.0981 13.8418 15.5619 14.5769V11.305H16.3279V14.6066C16.864 13.863 17.5023 13.2511 18.23 12.737C18.447 11.9127 18.5406 10.8801 18.5406 9.83909C18.5406 9.24846 18.2342 8.58347 17.7193 7.88279C17.2725 7.27049 16.5917 6.64119 15.9449 6ZM9.77056 11.9467C9.35397 11.9552 8.84037 12.0529 8.3225 12.2271C7.59911 12.4693 6.80594 12.8475 6 13.2469C6.41191 14.0287 6.82381 14.7893 7.26423 15.4012C7.76847 16.2043 8.30676 16.6972 8.88419 16.8799C9.91949 17.2028 10.8301 17.3983 11.6812 17.445C12.4471 16.9139 13.2726 16.5272 14.1194 16.319L10.9407 15.2142L11.179 14.4834L14.3875 15.4947C14.5194 15.278 14.6896 15.0868 14.8939 14.9423C14.0173 13.5571 12.5365 12.6945 10.4642 12.0444C10.2514 11.9722 10.0216 11.9424 9.77056 11.9467ZM22.1448 11.9594C21.9277 11.9637 21.7277 11.9934 21.5448 12.0529C19.4384 12.703 18.0002 13.5571 17.1193 14.9381C17.3278 15.0868 17.5066 15.278 17.6342 15.4989L20.7193 14.4961L21.0044 15.227L17.8768 16.3318C17.881 16.3955 17.8853 16.455 17.8853 16.5187C17.8853 16.7142 17.8512 16.9054 17.7917 17.0839C19.3108 17.6872 21.0299 17.5385 23.0809 16.8842C23.6469 16.7099 24.1703 16.2128 24.6639 15.4055C25.0979 14.7978 25.5872 14.033 26 13.2554C25.1107 12.856 24.3362 12.4778 23.6298 12.2356C23.1235 12.0614 22.6554 11.9594 22.2384 11.9552L22.1448 11.9594ZM15.9577 15.3587C15.3704 15.3587 14.9024 15.9323 14.9024 16.5187C14.9024 17.1051 15.3704 17.5725 15.9577 17.5725C16.5704 17.5725 17.1151 17.1051 17.1151 16.5187C17.1151 15.9323 16.5704 15.3587 15.9577 15.3587ZM14.2215 17.0711C12.6045 17.479 11.2641 18.5838 10.0259 20.3897C9.67694 20.8656 9.54503 21.5709 9.5578 22.4293C9.57056 23.1729 9.69396 24.0269 9.83013 25C10.6939 24.8598 11.545 24.7111 12.2811 24.4944C13.1833 24.1332 13.813 23.789 14.162 23.3131C14.7747 22.4675 15.247 21.6602 15.5534 20.8656C15.2683 19.918 15.1407 19.0682 15.2002 18.2014L13.3024 20.9166L12.6513 20.4619L14.6002 17.7212C14.43 17.5385 14.3024 17.3091 14.2215 17.0711ZM17.4555 17.7765L19.3278 20.4577L18.7065 20.9081L16.7449 18.1801C16.4938 18.2821 16.2215 18.3374 15.9577 18.3374H15.9534C15.8513 19.9818 16.5321 21.6092 17.8512 23.3046C18.1959 23.7847 18.8257 24.1289 19.6469 24.4859C20.3576 24.7068 21.298 24.8513 22.1788 24.9915C22.315 24.0185 22.4426 23.1644 22.4511 22.4208C22.4639 21.5667 22.332 20.8613 21.9831 20.3854C21.3703 19.4421 20.6554 18.7495 20.0001 18.2141C19.1108 18.2311 18.264 18.0952 17.4555 17.7765Z" fill="#FFF9F3"/>
</svg>
